<svg xmlns="http://www.w3.org/2000/svg" width="25" height="24" viewBox="0 0 25 24" fill="none">
    <g clip-path="url(#clip0_1_50)">
        <path d="M4.5 12C4.5 7.59 8.09 4 12.5 4C16.91 4 20.5 7.59 20.5 12C20.5 16.41 16.91 20 12.5 20C8.09 20 4.5 16.41 4.5 12ZM2.5 12C2.5 17.52 6.98 22 12.5 22C18.02 22 22.5 17.52 22.5 12C22.5 6.48 18.02 2 12.5 2C6.98 2 2.5 6.48 2.5 12ZM12.5 11L9.5 11C8.95 11 8.5 11.45 8.5 12C8.5 12.55 8.95 13 9.5 13L12.5 13L12.5 14.79C12.5 15.24 13.04 15.46 13.35 15.14L16.14 12.35C16.34 12.15 16.34 11.84 16.14 11.64L13.35 8.85C13.04 8.54 12.5 8.76 12.5 9.21L12.5 11Z" fill="#252851"/>
    </g>
    <defs>
        <clipPath id="clip0_1_50">
            <rect width="24" height="24" fill="white" transform="translate(24.5) rotate(90)"/>
        </clipPath>
    </defs>
</svg>