<svg xmlns="http://www.w3.org/2000/svg" width="249" height="57" viewBox="0 0 249 57" fill="none">
    <path d="M73.4423 35.9567L73.6222 35.5205L73.4536 35.3989L72.604 34.0905L72.4905 33.4517L72.3332 31.626L72.1468 31.2564L71.6944 30.9921L71.3783 30.3176L70.9583 28.6995L70.887 28.2342L70.8675 27.8369L70.7816 27.5694L70.4979 27.4608L70.2433 27.3181L69.9126 26.6712L69.7618 26.5139L66.545 27.0506L65.9532 26.9922L65.5317 26.6598L65.115 26.4977L64.5329 26.7636L63.612 27.4608L62.6684 27.9261L62.4074 28.2342L61.8107 29.194L61.5156 29.4794L61.3713 29.7696L61.1703 29.9933L60.8314 29.9609L60.7633 29.7372L60.7374 29.3221L60.6255 28.9168L60.298 28.6995L61.2805 26.8803L61.7961 26.1848L62.4949 25.5427L63.218 25.1471L64.8167 24.6704L65.6095 24.2732L66.2094 23.602L66.5937 22.574L66.665 21.2786L66.3424 19.8048L65.8397 19.0525L65.008 18.3067L64.2006 18.0894L63.7758 18.8806L65.4863 20.7079L65.9759 21.705H65.8073L65.1718 20.7435L64.3757 20.4193L63.6963 19.9912L63.411 18.7104L63.3364 18.0343L63.1467 17.4652L62.9051 16.995L62.6603 16.6318L62.4479 16.387L62.0231 16.0238L61.8545 15.8179L61.6923 15.466L61.5124 14.717L61.394 14.4057L60.8509 13.5934L60.2137 12.9951L59.4954 12.6238L58.7107 12.4909L58.6588 12.1682L59.1436 10.4399L59.1971 9.59839L59.0009 9.16062L58.6523 8.86392L58.2535 8.68881L57.8984 8.63531L57.399 8.66773L56.8915 8.59639L56.684 8.18619L57.078 7.17285L57.2547 6.40271L57.3504 3.78909L57.0796 3.2881L56.0873 2.17747L55.8685 2.05749L55.6382 1.70242L55.1048 1.44949L54.0525 1.25979L53.5288 1.35383L52.5074 1.79808L51.9124 1.8986L51.4843 1.777L48.8772 0.290221L48.1978 0.115116L47.1845 0.791218L46.5408 0.595035L45.5761 0L44.9811 0.0729607L44.4023 0.37291L43.8818 0.84148L43.47 1.40895L43.0209 1.75916L41.1644 1.89698L38.1033 3.32701L34.6353 3.49887L34.1035 3.2881L32.9474 2.4985L32.5194 2.53417L32.3556 3.18757L32.187 5.31154L31.8757 5.76065L31.5677 6.09627L31.2499 6.86155L31.0391 7.72086L31.0537 8.31752L30.6581 8.60288L30.0728 9.36491L29.7696 9.60001L28.8454 9.72809L27.9213 9.60001L26.7523 8.98227L26.274 8.92228L25.0482 9.28871L24.6234 9.27412L24.8845 8.39859L24.664 8.44074L24.3462 8.58666L24.1095 8.87689L23.9036 9.20926L23.6847 9.45409L21.9709 9.71999L21.6515 9.96968L21.3807 10.2794L20.6219 11.4597L20.7322 11.8731L20.6609 11.9477L20.5198 12.0028L20.4112 12.332L20.5652 13.5237L20.5311 13.9112L20.3042 14.2841L19.7724 14.5013L19.5518 14.7932L19.4513 15.3461L19.5648 16.528V17.0112L19.2843 18.0164L18.8644 18.832L16.9172 21.2608L16.7469 21.8931L16.6934 23.0442L16.7826 23.3847L16.9253 23.5501L16.9236 23.649L16.5751 23.8014L16.2946 23.782L15.7903 23.5128L14.9845 23.7528L14.0636 23.5015L13.5837 23.782L12.6498 24.7094L11.7305 25.2331L10.8193 25.2979L9.93238 24.8277L9.16549 24.1565L8.79744 24.1386L7.87976 25.0709L6.54863 25.7341L6.98964 26.107L7.15339 26.1978L6.94748 26.8917L7.16798 27.37L7.61223 27.6586L8.07756 27.7899L8.30131 27.9391L8.57045 28.5212L8.78285 28.7546L9.00659 28.7644L9.42328 28.4466L9.62595 28.385L9.99724 28.6022L10.8566 29.3788L11.2781 29.541L11.7272 29.3221L12.1423 29.0173L12.4293 29.0886L12.5022 30.0193L11.39 30.3857L8.71962 32.9426L7.69168 33.3463L6.6378 33.2976L4.60463 32.8177L4.0404 33.4565L3.49563 34.2607L3.16649 34.9401L3.02868 35.133L2.72062 35.4281L2.05911 35.8156L0.633947 36.2355L0 36.5922L0.337241 36.9084L0.423172 37.2602L0.478298 37.6364L0.737714 38.0142L1.37977 38.7292L2.51958 40.3375L3.14866 40.9991L3.82314 41.3574L4.60463 41.3655L5.1721 42.8069L5.52232 43.4651L5.9844 43.9807L6.43189 44.1574L7.48415 44.3228L7.87651 44.6195L8.05486 45.3491L8.16025 47.3807L8.51695 48.086L9.04064 48.407L10.5128 48.6113L12.1082 48.4962L12.5865 48.5951L14.5208 50.0397L14.7073 50.3332L14.751 50.7385L14.837 51.1292L15.1548 51.353L18.0197 52.0323L18.5985 51.9124L19.701 51.0401L20.369 51.0952L20.0723 51.4908L20.1663 51.5557L20.4355 51.5151L20.656 51.58L20.8538 51.9756L20.9057 52.1799L21.024 52.2123L21.4213 52.1199L22.7232 52.5609L23.1691 52.5155L22.5562 51.2249V50.9282L22.7508 50.6818L23.5663 50.2051L23.6587 50.3218L23.5809 50.6493L23.542 51.0579L23.5485 51.5816L23.5177 51.9967L23.615 52.1734L23.983 51.9853L24.2343 51.7064L24.4272 51.3092L24.4986 50.8471L24.3786 50.3834L24.9039 50.1159L24.8699 49.8792L24.6202 49.6635L24.4905 49.4868L24.6413 49.0264L24.8164 48.728L25.0336 48.4994L25.3384 48.2659L26.8074 47.8784L27.383 47.4926L27.2111 46.7386L27.5824 46.2263L26.6274 45.4156L26.7896 44.7784L25.8897 44.3326L25.8249 43.8364L25.9546 43.804L26.154 43.8672L26.3015 43.6856L26.3356 43.6889L26.5431 43.2625L26.535 43.2381L26.4637 43.1668L26.3599 42.9333L26.295 42.6496L26.3356 42.4339L26.5204 42.3334L26.9906 42.4242L27.2079 42.4161L28.0899 41.7449L29.3934 39.6793L30.1782 38.9027L31.0197 38.8281L31.9276 39.2902L33.5911 40.691L33.7792 40.9974L34.024 41.7773L34.2397 41.9054L34.5607 41.9378L34.7277 42.1162L35.2984 43.6921L35.3454 44.3569L35.1298 44.819L34.6612 45.0719L35.6113 45.5648L35.8513 45.8404L35.9729 46.2279L36.0653 46.6705L36.2209 47.1342L36.6668 47.8622L37.1889 48.4783L37.7628 48.9647L38.3449 49.336L38.6659 49.3685L38.8816 49.1334L39.0842 48.8383L39.3712 48.6648L39.6906 48.7086L39.976 48.8691L40.5386 49.3539L41.1466 50.077L41.3022 50.8909L41.0493 51.7308L40.4462 52.5106L40.7315 53.036L40.6975 53.5532L40.2824 54.6216L40.6926 54.9637L41.4093 55.8376L41.7887 56.0468L41.9362 55.9576L42.2232 55.515L42.3626 55.3577L42.575 55.3123L42.9852 55.4874L43.196 55.515L45.4886 54.6654L46.2311 54.6216L46.249 54.7043L46.3544 54.8989L46.5133 55.1032L46.6851 55.2232H46.8764L47.5688 54.9718L48.1995 54.8697L48.3713 54.7059L48.4832 54.3249L48.4654 53.9439L48.4184 53.5969L48.4524 53.3116L48.8075 52.7003L49.028 52.7376L49.2339 53.0538L49.5517 53.2792L49.9067 53.2029L50.2894 53.0051L50.6915 52.95L51.1017 53.2954L51.2671 52.9808L51.8394 53.2192L52.642 53.2759L53.3586 53.5321L53.665 54.3736L54.0088 54.3979L56.0663 55.168L55.8506 55.2167L55.3172 55.4745V55.7679L55.7841 56.1084L56.2073 56.1846L57.2547 56.0954L57.613 55.9284L58.7545 55.0545L59.5846 54.1741L60.7066 53.5986L61.1962 52.9808L61.4783 52.2528L61.7118 51.3449L61.8723 50.4013L61.9453 49.5241L61.8869 47.7779L62.0474 47.2283L62.5776 47.0272L63.1078 46.9251L64.2654 46.4954L65.4068 46.3803L66.9682 46.5133L67.2925 46.8537L67.38 47.2202L67.5876 47.2672L67.8243 47.1537L68.0091 47.0272L68.1939 46.0836L68.3139 46.0366L68.6187 46.1177L68.742 46.0852L69.6305 45.1675L70.3439 44.112L70.6714 42.7955L70.4103 41.0461L69.6288 40.2046L68.4874 40.5289L67.2455 41.265L66.1608 41.6703L66.451 41.1904L67.4319 40.391L67.6443 39.963L68.3885 37.5586L68.1907 37.2732L68.3269 36.9765L68.3593 36.8452L68.3869 36.6538L68.0448 36.5339L67.8778 36.135L67.8745 35.6L68.0042 35.0471L67.1887 34.5899L67.359 34.3775L67.9507 34.264L68.3869 34.1051L68.0853 33.8359L67.0882 33.7646L66.8904 33.6122L66.6488 33.3787L66.3488 33.1809L65.9743 33.1582L66.2321 32.881L66.4591 32.4935L66.5385 32.0298L66.3391 31.579V31.2693L67.1466 31.3083L67.8713 31.7249L69.7391 33.51L70.2012 34.2948L70.4865 35.3584L70.5871 36.7884L70.4557 37.4856L69.8348 38.2784L69.6548 38.8183L69.7002 39.3323L69.8947 39.8495L70.1769 40.2516L70.4946 40.4267L70.767 41.3249L71.02 41.9702L71.3377 42.301L71.7058 42.2264L72.0414 41.5795L72.4386 41.3606L72.0528 40.8531L72.1922 40.4883L72.5473 40.1754L72.8034 39.8203L72.904 39.0583L72.7175 38.2946L72.8861 37.7369L73.4017 36.9295L73.5363 36.6555L73.546 36.409L73.4633 36.2258L73.4423 35.9567ZM51.7648 26.3275L51.4989 26.715L50.4564 27.6959L50.3186 28.0137L49.9149 29.2572L49.8451 29.6626L50.0883 29.8896L50.5472 29.7599L51.0076 29.7453L51.2671 30.3306L51.1665 30.9807L50.8293 31.3553L50.0527 31.7768L49.9927 31.8919L49.9294 32.1465L49.8565 32.2324L49.3214 32.2632L49.2144 32.3038L49.1917 32.5032L49.3004 32.6734L49.4009 32.8956L49.3522 33.2247L49.1674 33.3836L48.8983 33.489L48.681 33.6219L48.6778 33.8376L49.315 34.7617L47.9936 35.5205L47.6061 35.587L47.251 35.3908L46.7808 34.7293L46.4484 34.4699L45.5291 34.3142L43.7586 34.5412L42.8798 34.1343L42.1502 33.5846L41.9005 33.1469L41.9686 32.5194L42.1308 32.3378L42.6269 32.2292L42.8279 32.1205L42.9609 31.8936L43.1425 31.3877L43.29 31.1915L44.0148 30.4635L44.4704 29.5767L44.6212 28.5001L44.412 27.1333L44.2466 26.5366L44.1347 26.0016L44.138 25.46L44.3066 24.8374L44.3731 24.2424L44.6293 23.7414L44.9827 23.4204L45.3378 23.362L45.6912 23.6944L45.641 24.163L45.5356 24.6883L45.7318 25.1796L45.9458 25.2882L46.4063 25.2639L46.6332 25.3757L46.8635 25.5719L47.0726 25.6805L47.2899 25.7178H47.5444L48.0227 25.5881L48.9583 25.0855L49.9003 24.9704L50.865 24.4629L51.3627 24.5294L51.7146 24.8456L51.9091 25.2833L51.9302 25.7843L51.7648 26.3275Z" fill="#116FB8"/>
    <path d="M67.9919 28.2821C67.7319 26.7621 66.8919 25.4021 65.4919 24.2021C64.0119 22.9421 62.3719 22.3821 60.3319 22.3821C56.0919 22.3821 52.7119 25.9221 52.7119 29.8421C52.7119 32.0821 53.3919 33.9621 54.9919 35.5221C56.5119 37.0221 58.4519 37.7421 60.5119 37.7421C64.0119 37.7421 67.0719 35.4821 67.9919 31.9221H64.0319C63.2519 33.5821 61.9719 34.4221 60.4719 34.4221C58.1319 34.4221 56.4919 32.4221 56.4919 30.0221C56.4919 27.7221 58.0919 25.7021 60.4519 25.7021C61.9919 25.7021 63.3919 26.6621 64.0319 28.2821H67.9919Z" fill="white"/>
    <path d="M80.9725 37.4621V26.3621H77.6525V27.5421H77.6125C76.9725 26.5221 75.7125 25.9821 74.3525 25.9821C71.1725 25.9821 68.7925 28.6221 68.7925 31.9021C68.7925 35.2621 71.0725 37.8421 74.3525 37.8421C75.8125 37.8421 77.1325 37.2421 77.6125 36.2621H77.6525V37.4621H80.9725ZM74.8725 34.7421C73.3325 34.7421 72.1125 33.4821 72.1125 31.9421C72.1125 30.3421 73.3125 29.0821 74.8325 29.0821C76.3925 29.0821 77.6525 30.3421 77.6525 31.9021C77.6525 33.5021 76.4325 34.7421 74.8725 34.7421Z" fill="white"/>
    <path d="M90.8746 29.4821C90.7146 27.3021 89.0146 25.9821 86.6146 25.9821C84.3746 25.9821 82.3146 27.4021 82.3146 29.6021C82.3146 30.9021 83.0546 32.0021 85.8546 32.8621C87.5146 33.3821 87.8946 33.7021 87.8946 34.3221C87.8946 34.8421 87.3146 35.1821 86.7346 35.1821C86.0746 35.1821 85.5746 34.8621 85.4746 34.1621H82.1746C82.4146 36.4221 84.1946 37.8421 86.6946 37.8421C89.2146 37.8421 91.2146 36.3821 91.2146 34.0621C91.2146 32.4421 90.3546 31.3821 87.7146 30.6821C86.1746 30.2821 85.6346 29.9821 85.6346 29.3821C85.6346 28.9621 86.0346 28.6421 86.5946 28.6421C87.1346 28.6421 87.5946 28.8421 87.6146 29.4821H90.8746Z" fill="white"/>
    <path d="M102.655 37.4621V30.4821C102.655 27.5821 101.115 25.9821 98.575 25.9821C97.255 25.9821 96.175 26.5221 95.695 27.4221V22.6621H92.375V37.4621H95.695V31.2221C95.695 29.8421 96.295 29.1021 97.555 29.1021C98.775 29.1021 99.335 29.9221 99.335 31.3621V37.4621H102.655Z" fill="white"/>
    <path d="M108.272 37.4621V31.8221H112.572V28.5021H108.272V25.9821H112.732V22.6621H104.652V37.4621H108.272Z" fill="white"/>
    <path d="M125.178 31.8621C125.178 28.5021 122.538 26.0021 119.198 26.0021C115.878 26.0021 113.218 28.4621 113.218 31.9021C113.218 35.3021 115.818 37.8021 119.198 37.8021C122.538 37.8021 125.178 35.3421 125.178 31.8621ZM119.198 34.7021C117.698 34.7021 116.538 33.4221 116.538 31.9021C116.538 30.3821 117.718 29.1021 119.178 29.1021C120.738 29.1021 121.858 30.4221 121.858 31.9021C121.858 33.3821 120.758 34.7021 119.198 34.7021Z" fill="white"/>
    <path d="M129.859 37.4621V31.3421C129.859 30.0821 130.499 29.3421 132.479 29.3221V25.9821C131.199 25.9821 130.279 26.3621 129.699 27.5421H129.659V26.3621H126.539V37.4621H129.859Z" fill="white"/>
    <path d="M148.144 28.2821C147.884 26.7621 147.044 25.4021 145.644 24.2021C144.164 22.9421 142.524 22.3821 140.484 22.3821C136.244 22.3821 132.864 25.9221 132.864 29.8421C132.864 32.0821 133.544 33.9621 135.144 35.5221C136.664 37.0221 138.604 37.7421 140.664 37.7421C144.164 37.7421 147.224 35.4821 148.144 31.9221H144.184C143.404 33.5821 142.124 34.4221 140.624 34.4221C138.284 34.4221 136.644 32.4221 136.644 30.0221C136.644 27.7221 138.244 25.7021 140.604 25.7021C142.144 25.7021 143.544 26.6621 144.184 28.2821H148.144Z" fill="white"/>
    <path d="M161.125 37.4621V26.3621H157.805V27.5421H157.765C157.125 26.5221 155.865 25.9821 154.505 25.9821C151.325 25.9821 148.945 28.6221 148.945 31.9021C148.945 35.2621 151.225 37.8421 154.505 37.8421C155.965 37.8421 157.285 37.2421 157.765 36.2621H157.805V37.4621H161.125ZM155.025 34.7421C153.485 34.7421 152.265 33.4821 152.265 31.9421C152.265 30.3421 153.465 29.0821 154.985 29.0821C156.545 29.0821 157.805 30.3421 157.805 31.9021C157.805 33.5021 156.585 34.7421 155.025 34.7421Z" fill="white"/>
    <path d="M166.347 37.4621V31.3421C166.347 30.0821 166.987 29.3421 168.967 29.3221V25.9821C167.687 25.9821 166.767 26.3621 166.187 27.5421H166.147V26.3621H163.027V37.4621H166.347Z" fill="white"/>
    <path d="M178.183 29.4821C178.023 27.3021 176.323 25.9821 173.923 25.9821C171.683 25.9821 169.623 27.4021 169.623 29.6021C169.623 30.9021 170.363 32.0021 173.163 32.8621C174.823 33.3821 175.203 33.7021 175.203 34.3221C175.203 34.8421 174.623 35.1821 174.043 35.1821C173.383 35.1821 172.883 34.8621 172.783 34.1621H169.483C169.723 36.4221 171.503 37.8421 174.003 37.8421C176.523 37.8421 178.523 36.3821 178.523 34.0621C178.523 32.4421 177.663 31.3821 175.023 30.6821C173.483 30.2821 172.943 29.9821 172.943 29.3821C172.943 28.9621 173.343 28.6421 173.903 28.6421C174.443 28.6421 174.903 28.8421 174.923 29.4821H178.183Z" fill="white"/>
    <path d="M96.711 48.2851V43.7051H95V43.0923H99.116V43.7051H97.398V48.2851H96.711Z" fill="#CFCECE"/>
    <path d="M99.6689 45.7558C99.6689 44.8939 99.9009 44.2197 100.363 43.7332C100.826 43.2444 101.424 43 102.156 43C102.635 43 103.067 43.1145 103.452 43.3436C103.837 43.5727 104.13 43.8926 104.331 44.3035C104.534 44.7121 104.635 45.1761 104.635 45.6956C104.635 46.2222 104.529 46.6933 104.316 47.1089C104.104 47.5245 103.803 47.8398 103.413 48.0547C103.024 48.2672 102.603 48.3735 102.152 48.3735C101.663 48.3735 101.227 48.2554 100.842 48.0193C100.457 47.7831 100.165 47.4608 99.9669 47.0522C99.7679 46.6437 99.6689 46.2116 99.6689 45.7558ZM100.378 45.7664C100.378 46.3922 100.545 46.8858 100.881 47.2471C101.218 47.606 101.641 47.7855 102.149 47.7855C102.666 47.7855 103.091 47.6036 103.424 47.24C103.759 46.8763 103.927 46.3603 103.927 45.6921C103.927 45.2694 103.855 44.901 103.711 44.5869C103.569 44.2705 103.36 44.0261 103.084 43.8537C102.81 43.6789 102.502 43.5916 102.159 43.5916C101.673 43.5916 101.254 43.7592 100.902 44.0945C100.552 44.4275 100.378 44.9848 100.378 45.7664Z" fill="#CFCECE"/>
    <path d="M105.713 48.2851V43.0923H107.672C108.017 43.0923 108.28 43.1088 108.462 43.1419C108.717 43.1844 108.93 43.2659 109.103 43.3863C109.275 43.5044 109.413 43.6709 109.517 43.8858C109.623 44.1006 109.677 44.3368 109.677 44.5942C109.677 45.0358 109.536 45.4101 109.255 45.717C108.974 46.0217 108.466 46.174 107.732 46.174H106.4V48.2851H105.713ZM106.4 45.5612H107.743C108.187 45.5612 108.502 45.4785 108.688 45.3132C108.875 45.1479 108.968 44.9153 108.968 44.6154C108.968 44.3982 108.913 44.2128 108.802 44.0593C108.693 43.9035 108.549 43.8007 108.37 43.7512C108.254 43.7205 108.04 43.7051 107.728 43.7051H106.4V45.5612Z" fill="#CFCECE"/>
    <path d="M116.221 43.0923H116.908V46.0925C116.908 46.6144 116.849 47.0288 116.731 47.3358C116.613 47.6428 116.399 47.8931 116.09 48.0868C115.783 48.278 115.379 48.3737 114.878 48.3737C114.392 48.3737 113.994 48.2898 113.685 48.1222C113.375 47.9545 113.154 47.7125 113.022 47.396C112.89 47.0772 112.824 46.6427 112.824 46.0925V43.0923H113.511V46.089C113.511 46.54 113.552 46.873 113.635 47.0879C113.72 47.3004 113.864 47.4645 114.067 47.5802C114.273 47.6959 114.523 47.7538 114.818 47.7538C115.323 47.7538 115.684 47.6393 115.898 47.4102C116.113 47.1811 116.221 46.7407 116.221 46.089V43.0923Z" fill="#CFCECE"/>
    <path d="M118.01 46.6169L118.659 46.5602C118.689 46.8199 118.76 47.0337 118.871 47.2013C118.985 47.3666 119.159 47.5012 119.395 47.6051C119.632 47.7067 119.897 47.7574 120.192 47.7574C120.455 47.7574 120.686 47.7185 120.887 47.6405C121.087 47.5626 121.236 47.4564 121.333 47.3217C121.432 47.1848 121.482 47.036 121.482 46.8754C121.482 46.7125 121.435 46.5708 121.34 46.4504C121.246 46.3276 121.09 46.2249 120.872 46.1422C120.733 46.0879 120.425 46.0041 119.948 45.8907C119.471 45.775 119.137 45.6664 118.946 45.5648C118.698 45.435 118.512 45.2744 118.389 45.0831C118.269 44.8895 118.209 44.6734 118.209 44.4349C118.209 44.1728 118.283 43.9284 118.432 43.7017C118.581 43.4726 118.798 43.299 119.084 43.181C119.369 43.0629 119.687 43.0039 120.037 43.0039C120.421 43.0039 120.76 43.0664 121.053 43.1916C121.348 43.3144 121.575 43.4962 121.733 43.7371C121.891 43.9779 121.976 44.2507 121.988 44.5553L121.329 44.6049C121.294 44.2767 121.174 44.0287 120.968 43.8611C120.765 43.6934 120.464 43.6096 120.065 43.6096C119.649 43.6096 119.346 43.6863 119.155 43.8398C118.966 43.9909 118.871 44.1739 118.871 44.3888C118.871 44.5754 118.938 44.7289 119.073 44.8493C119.205 44.9698 119.55 45.0937 120.107 45.2212C120.667 45.3464 121.051 45.4562 121.259 45.5507C121.561 45.69 121.784 45.8671 121.928 46.082C122.072 46.2945 122.144 46.5401 122.144 46.8188C122.144 47.0951 122.065 47.356 121.907 47.6016C121.749 47.8448 121.521 48.0349 121.223 48.1719C120.928 48.3065 120.595 48.3738 120.224 48.3738C119.754 48.3738 119.36 48.3053 119.041 48.1683C118.725 48.0314 118.476 47.8259 118.294 47.552C118.114 47.2757 118.02 46.964 118.01 46.6169Z" fill="#CFCECE"/>
    <path d="M123.286 48.2851V43.0923H127.04V43.7051H123.973V45.2955H126.845V45.9048H123.973V47.6723H127.161V48.2851H123.286Z" fill="#CFCECE"/>
    <path d="M128.299 48.2851V43.0923H130.087C130.491 43.0923 130.799 43.1171 131.012 43.1667C131.309 43.2352 131.563 43.3592 131.773 43.5386C132.047 43.77 132.252 44.0664 132.386 44.4277C132.523 44.7866 132.592 45.1975 132.592 45.6604C132.592 46.0547 132.546 46.4042 132.454 46.7089C132.361 47.0135 132.243 47.2662 132.099 47.4669C131.955 47.6652 131.797 47.8223 131.625 47.938C131.455 48.0513 131.248 48.1375 131.005 48.1966C130.764 48.2556 130.486 48.2851 130.172 48.2851H128.299ZM128.986 47.6723H130.094C130.437 47.6723 130.705 47.6404 130.899 47.5767C131.095 47.5129 131.25 47.4232 131.366 47.3075C131.529 47.1445 131.655 46.9261 131.745 46.6522C131.837 46.3759 131.883 46.0417 131.883 45.6497C131.883 45.1066 131.794 44.6898 131.614 44.3994C131.437 44.1065 131.221 43.9105 130.966 43.8114C130.782 43.7405 130.485 43.7051 130.077 43.7051H128.986V47.6723Z" fill="#CFCECE"/>
    <path d="M139.642 46.4645L140.33 46.6381C140.185 47.2025 139.926 47.6335 139.55 47.931C139.177 48.2262 138.72 48.3738 138.179 48.3738C137.62 48.3738 137.164 48.2604 136.812 48.0337C136.463 47.8047 136.196 47.4741 136.012 47.0419C135.83 46.6098 135.739 46.1458 135.739 45.6498C135.739 45.1091 135.842 44.638 136.047 44.2365C136.255 43.8327 136.549 43.5269 136.929 43.3191C137.312 43.1089 137.732 43.0039 138.19 43.0039C138.71 43.0039 139.146 43.1361 139.501 43.4006C139.855 43.6651 140.102 44.037 140.241 44.5164L139.564 44.6758C139.444 44.2979 139.269 44.0228 139.04 43.8504C138.811 43.678 138.523 43.5919 138.176 43.5919C137.777 43.5919 137.443 43.6875 137.173 43.8788C136.907 44.07 136.719 44.3274 136.61 44.651C136.502 44.9721 136.447 45.3039 136.447 45.6463C136.447 46.0879 136.511 46.474 136.639 46.8046C136.768 47.1328 136.969 47.3784 137.241 47.5414C137.512 47.7043 137.806 47.7858 138.123 47.7858C138.508 47.7858 138.834 47.6748 139.1 47.4528C139.367 47.2308 139.548 46.9014 139.642 46.4645Z" fill="#CFCECE"/>
    <path d="M140.798 48.2851L142.792 43.0923H143.533L145.658 48.2851H144.875L144.269 46.7124H142.098L141.528 48.2851H140.798ZM142.296 46.1527H144.057L143.515 44.7146C143.35 44.2778 143.227 43.9188 143.146 43.6378C143.08 43.9708 142.987 44.3014 142.867 44.6296L142.296 46.1527Z" fill="#CFCECE"/>
    <path d="M146.406 48.2851V43.0923H148.709C149.171 43.0923 149.523 43.1395 149.764 43.234C150.005 43.3261 150.197 43.4902 150.341 43.7264C150.485 43.9625 150.558 44.2234 150.558 44.5092C150.558 44.8776 150.438 45.1881 150.2 45.4408C149.961 45.6934 149.593 45.854 149.095 45.9225C149.276 46.0099 149.415 46.0961 149.509 46.1811C149.71 46.3653 149.9 46.5955 150.079 46.8718L150.983 48.2851H150.118L149.431 47.2048C149.23 46.893 149.065 46.6545 148.935 46.4892C148.805 46.3239 148.688 46.2082 148.585 46.1421C148.483 46.076 148.379 46.0299 148.273 46.004C148.195 45.9874 148.067 45.9792 147.89 45.9792H147.093V48.2851H146.406ZM147.093 45.3841H148.57C148.884 45.3841 149.13 45.3522 149.307 45.2884C149.484 45.2223 149.619 45.1184 149.711 44.9767C149.803 44.8327 149.849 44.6768 149.849 44.5092C149.849 44.2636 149.759 44.0617 149.58 43.9035C149.403 43.7452 149.122 43.6661 148.737 43.6661H147.093V45.3841Z" fill="#CFCECE"/>
    <path d="M154.006 48.2851V43.0923H155.954C156.351 43.0923 156.668 43.1454 156.907 43.2517C157.148 43.3556 157.335 43.5174 157.47 43.737C157.607 43.9542 157.675 44.1821 157.675 44.4206C157.675 44.6426 157.615 44.8516 157.495 45.0476C157.374 45.2436 157.193 45.4018 156.949 45.5222C157.263 45.6143 157.504 45.7714 157.672 45.9933C157.842 46.2153 157.927 46.4774 157.927 46.7797C157.927 47.0229 157.875 47.2496 157.771 47.4598C157.67 47.6676 157.543 47.8282 157.392 47.9415C157.241 48.0549 157.051 48.1411 156.822 48.2001C156.595 48.2568 156.316 48.2851 155.986 48.2851H154.006ZM154.693 45.2743H155.816C156.12 45.2743 156.339 45.2542 156.471 45.2141C156.646 45.1621 156.777 45.0759 156.864 44.9555C156.954 44.8351 156.999 44.6839 156.999 44.5021C156.999 44.3297 156.958 44.1786 156.875 44.0487C156.792 43.9165 156.674 43.8267 156.521 43.7795C156.367 43.7299 156.104 43.7051 155.731 43.7051H154.693V45.2743ZM154.693 47.6723H155.986C156.208 47.6723 156.364 47.6641 156.453 47.6475C156.612 47.6192 156.744 47.572 156.85 47.5058C156.956 47.4397 157.044 47.3441 157.112 47.2189C157.181 47.0914 157.215 46.945 157.215 46.7797C157.215 46.5861 157.165 46.4184 157.066 46.2767C156.967 46.1327 156.829 46.0323 156.652 45.9756C156.477 45.9166 156.224 45.8871 155.894 45.8871H154.693V47.6723Z" fill="#CFCECE"/>
    <path d="M162.469 43.0923H163.156V46.0925C163.156 46.6144 163.097 47.0288 162.979 47.3358C162.861 47.6428 162.647 47.8931 162.338 48.0868C162.031 48.278 161.627 48.3737 161.126 48.3737C160.64 48.3737 160.242 48.2898 159.933 48.1222C159.623 47.9545 159.403 47.7125 159.27 47.396C159.138 47.0772 159.072 46.6427 159.072 46.0925V43.0923H159.759V46.089C159.759 46.54 159.8 46.873 159.883 47.0879C159.968 47.3004 160.112 47.4645 160.315 47.5802C160.521 47.6959 160.771 47.7538 161.066 47.7538C161.572 47.7538 161.932 47.6393 162.147 47.4102C162.361 47.1811 162.469 46.7407 162.469 46.089V43.0923Z" fill="#CFCECE"/>
    <path d="M165.955 48.2851V46.0854L163.954 43.0923H164.79L165.814 44.6579C166.002 44.9508 166.178 45.2436 166.341 45.5364C166.497 45.2648 166.686 44.959 166.908 44.619L167.914 43.0923H168.715L166.642 46.0854V48.2851H165.955Z" fill="#CFCECE"/>
    <path d="M169.534 48.2851V43.0923H173.288V43.7051H170.221V45.2955H173.094V45.9048H170.221V47.6723H173.409V48.2851H169.534Z" fill="#CFCECE"/>
    <path d="M174.557 48.2851V43.0923H176.86C177.323 43.0923 177.674 43.1395 177.915 43.234C178.156 43.3261 178.349 43.4902 178.493 43.7264C178.637 43.9625 178.709 44.2234 178.709 44.5092C178.709 44.8776 178.59 45.1881 178.351 45.4408C178.113 45.6934 177.744 45.854 177.246 45.9225C177.428 46.0099 177.566 46.0961 177.66 46.1811C177.861 46.3653 178.051 46.5955 178.231 46.8718L179.134 48.2851H178.27L177.582 47.2048C177.382 46.893 177.216 46.6545 177.086 46.4892C176.957 46.3239 176.84 46.2082 176.736 46.1421C176.634 46.076 176.53 46.0299 176.424 46.004C176.346 45.9874 176.219 45.9792 176.042 45.9792H175.245V48.2851H174.557ZM175.245 45.3841H176.722C177.036 45.3841 177.281 45.3522 177.458 45.2884C177.636 45.2223 177.77 45.1184 177.862 44.9767C177.954 44.8327 178 44.6768 178 44.5092C178 44.2636 177.911 44.0617 177.731 43.9035C177.554 43.7452 177.273 43.6661 176.888 43.6661H175.245V45.3841Z" fill="#CFCECE"/>
</svg>